P3
100 50
255
0 0 0 0 0 0 0 0 0 0 0 0 0 0 0 0 0
0 0 0 0 0 0 0 0 0 0 0 0 0 0 0 0 0
0 0 0 0 0 0 0 0 0 0 0 0 0 0 0 0 0
0 0 0 0 0 0 0 0 0 0 0 0 0 0 0 0 0
0 0 0 0 0 0 0 0 0 0 0 0 0 0 0 0 0
0 0 0 0 0 0 0 0 0 0 0 0 0 0 0 0 0
0 0 0 0 0 0 0 0 0 0 0 0 0 0 0 0 0
0 0 0 0 0 0 0 0 0 0 0 0 0 0 0 0 0
0 0 0 0 0 0 0 0 0 0 0 0 0 0 0 0 0
0 0 0 0 0 0 0 0 0 0 0 0 0 0 0 0 0
0 0 0 0 0 0 0 0 0 0 0 0 0 0 0 0 0
0 0 0 0 0 0 0 0 0 0 0 0 0 0 0 0 0
0 0 0 0 0 0 0 0 0 0 0 0 0 0 0 0 0
0 0 0 0 0 0 0 0 0 0 0 0 0 0 0 0 0
0 0 0 0 0 0 0 0 0 0 0 0 0 0 0 0 0
0 0 0 0 0 0 0 0 0 0 0 0 0 0 0 0 0
0 0 0 0 0 0 0 0 0 0 0 0 0 0 0 0 0
0 0 0 0 0 0 0 0 0 0 0
0 0 0 0 0 0 0 0 0 0 0 0 0 0 0 0 0
0 0 0 0 0 0 0 0 0 0 0 0 0 0 0 0 0
0 0 0 0 0 0 0 0 0 0 0 0 0 0 0 0 0
0 0 0 0 0 0 0 0 0 0 0 0 0 0 0 0 0
0 0 0 0 0 0 0 0 0 0 0 0 0 0 0 0 0
0 0 0 0 0 0 0 0 0 0 0 0 0 0 0 0 0
0 0 0 0 0 0 0 0 0 0 0 0 0 0 0 0 0
0 0 0 0 0 0 0 0 0 0 0 0 0 0 0 0 0
0 0 0 0 0 0 0 0 0 0 0 0 0 0 0 0 0
0 0 0 0 0 0 0 0 0 0 0 0 0 0 0 0 0
0 0 0 0 0 0 0 0 0 0 0 0 0 0 0 0 0
0 0 0 0 0 0 0 0 0 0 0 0 0 0 0 0 0
0 0 0 0 0 0 0 0 0 0 0 0 0 0 0 0 0
0 0 0 0 0 0 0 0 0 0 0 0 0 0 0 0 0
0 0 0 0 0 0 0 0 0 0 0 0 0 0 0 0 0
0 0 0 0 0 0 0 0 0 0 0 0 0 0 0 0 0
0 0 0 0 0 0 0 0 0 0 0 0 0 0 0 0 0
0 0 0 0 0 0 0 0 0 0 0
0 0 0 0 0 0 0 0 0 0 0 0 0 0 0 0 0
0 0 0 0 0 0 0 0 0 0 0 0 0 0 0 0 0
0 0 0 0 0 0 0 0 0 0 0 0 0 0 0 0 0
0 0 0 0 0 0 0 0 0 0 0 0 0 0 0 0 0
0 0 0 0 0 0 0 0 0 0 0 0 0 0 0 0 0
0 0 0 0 0 0 0 0 0 0 0 0 0 0 0 0 0
0 0 0 0 0 0 0 0 0 0 0 0 0 0 0 0 0
0 0 0 0 0 0 0 0 0 0 0 0 0 0 0 0 0
0 0 0 0 0 0 0 0 0 0 0 0 0 0 0 0 0
0 0 0 0 0 0 0 0 0 0 0 0 0 0 0 0 0
0 0 0 0 0 0 0 0 0 0 0 0 0 0 0 0 0
0 0 0 0 0 0 0 0 0 0 0 0 0 0 0 0 0
0 0 0 0 0 0 0 0 0 0 0 0 0 0 0 0 0
0 0 0 0 0 0 0 0 0 0 0 0 0 0 0 0 0
0 0 0 0 0 0 0 0 0 0 0 0 0 0 0 0 0
0 0 0 0 0 0 0 0 0 0 0 0 0 0 0 0 0
0 0 0 0 0 0 0 0 0 0 0 0 0 0 0 0 0
0 0 0 0 0 0 0 0 0 0 0
0 0 0 0 0 0 0 0 0 0 0 0 0 0 0 0 0
0 0 0 0 0 0 0 0 0 0 0 0 0 0 0 0 0
0 0 0 0 0 0 0 0 0 0 0 0 0 0 0 0 0
0 0 0 0 0 0 0 0 0 0 0 0 0 0 0 0 0
0 0 0 0 0 0 0 0 0 0 0 0 0 0 0 0 0
0 0 0 0 0 0 0 0 0 0 0 0 0 0 0 0 0
0 0 0 0 0 0 0 0 0 0 0 0 0 0 0 0 0
0 0 0 0 0 0 0 0 0 0 0 0 0 0 0 0 0
0 0 0 0 0 0 0 0 0 0 0 0 0 0 0 0 0
0 0 0 0 0 0 0 0 0 0 0 0 0 0 0 0 0
0 0 0 0 0 0 0 0 0 0 0 0 0 0 0 0 0
0 0 0 0 0 0 0 0 0 0 0 0 0 0 0 0 0
0 0 0 0 0 0 0 0 0 0 0 0 0 0 0 0 0
0 0 0 0 0 0 0 0 0 0 0 0 0 0 0 0 0
0 0 0 0 0 0 0 0 0 0 0 0 0 0 0 0 0
0 0 0 0 0 0 0 0 0 0 0 0 0 0 0 0 0
0 0 0 0 0 0 0 0 0 0 0 0 0 0 0 0 0
0 0 0 0 0 0 0 0 0 0 0
0 0 0 0 0 0 0 0 0 0 0 0 0 0 0 0 0
0 0 0 0 0 0 0 0 0 0 0 0 0 0 0 0 0
0 0 0 0 0 0 0 0 0 0 0 0 0 0 0 0 0
0 0 0 0 0 0 0 0 0 0 0 0 0 0 0 0 0
0 0 0 0 0 0 0 0 0 0 0 0 0 0 0 0 0
0 0 0 0 0 0 0 0 0 0 0 0 0 0 0 0 0
0 0 0 0 0 0 0 0 0 0 0 0 0 0 0 0 0
0 0 0 0 0 0 0 0 0 0 0 0 0 0 0 0 0
0 0 0 0 0 0 0 0 0 0 0 0 0 0 0 0 0
0 0 0 0 0 0 0 0 0 0 0 0 0 0 0 0 0
0 0 0 0 0 0 0 0 0 0 0 0 0 0 0 0 0
0 0 0 0 0 0 0 0 0 0 0 0 0 0 0 0 0
0 0 0 0 0 0 0 0 0 0 0 0 0 0 0 0 0
0 0 0 0 0 0 0 0 0 0 0 0 0 0 0 0 0
0 0 0 0 0 0 0 0 0 0 0 0 0 0 0 0 0
0 0 0 0 0 0 0 0 0 0 0 0 0 0 0 0 0
0 0 0 0 0 0 0 0 0 0 0 0 0 0 0 0 0
0 0 0 0 0 0 0 0 0 0 0
0 0 0 0 0 0 0 0 0 0 0 0 0 0 0 0 0
0 0 0 0 0 0 0 0 0 0 0 0 0 0 0 0 0
0 0 0 0 0 0 0 0 0 0 0 0 0 0 0 0 0
0 0 0 0 0 0 0 0 0 0 0 0 0 0 0 0 0
0 0 0 0 0 0 0 0 0 0 0 0 0 0 0 0 0
0 0 0 0 0 0 0 0 0 0 0 0 0 0 0 0 0
0 0 0 0 0 0 0 0 0 0 0 0 0 0 0 0 0
0 0 0 0 0 0 0 0 0 0 0 0 0 0 0 0 0
0 0 0 0 0 0 0 0 0 0 0 0 0 0 0 0 0
0 0 0 0 0 0 0 0 0 0 0 0 0 0 0 0 0
0 0 0 0 0 0 0 0 0 0 0 0 0 0 0 0 0
0 0 0 0 0 0 0 0 0 0 0 0 0 0 0 0 0
0 0 0 0 0 0 0 0 0 0 0 0 0 0 0 0 0
0 0 0 0 0 0 0 0 0 0 0 0 0 0 0 0 0
0 0 0 0 0 0 0 0 0 0 0 0 0 0 0 0 0
0 0 0 0 0 0 0 0 0 0 0 0 0 0 0 0 0
0 0 0 0 0 0 0 0 0 0 0 0 0 0 0 0 0
0 0 0 0 0 0 0 0 0 0 0
0 0 0 0 0 0 0 0 0 0 0 0 0 0 0 0 0
0 0 0 0 0 0 0 0 0 0 0 0 0 0 0 0 0
0 0 0 0 0 0 0 0 0 0 0 0 0 0 0 0 0
0 0 0 0 0 0 0 0 0 0 0 0 0 0 0 0 0
0 0 0 0 0 0 0 0 0 0 0 0 0 0 0 0 0
0 0 0 0 0 0 0 0 0 0 0 0 0 0 0 0 0
0 0 0 0 0 0 0 0 0 0 0 0 0 0 0 0 0
0 0 0 0 0 0 0 0 0 0 0 0 0 0 0 0 0
0 0 0 0 0 0 0 0 0 0 0 0 0 0 0 0 0
0 0 0 0 0 0 0 0 0 0 0 0 0 0 0 0 0
0 0 0 0 0 0 0 0 0 0 0 0 0 0 0 0 0
0 0 0 0 0 0 0 0 0 0 0 0 0 0 0 0 0
0 0 0 0 0 0 0 0 0 0 0 0 0 0 0 0 0
0 0 0 0 0 0 0 0 0 0 0 0 0 0 0 0 0
0 0 0 0 0 0 0 0 0 0 0 0 0 0 0 0 0
0 0 0 0 0 0 0 0 0 0 0 0 0 0 0 0 0
0 0 0 0 0 0 0 0 0 0 0 0 0 0 0 0 0
0 0 0 0 0 0 0 0 0 0 0
0 0 0 0 0 0 0 0 0 0 0 0 0 0 0 0 0
0 0 0 0 0 0 0 0 0 0 0 0 0 0 0 0 0
0 0 0 0 0 0 0 0 0 0 0 0 0 0 0 0 0
0 0 0 0 0 0 0 0 0 0 0 0 0 0 0 0 0
0 0 0 0 0 0 0 0 0 0 0 0 0 0 0 0 0
0 0 0 0 0 0 0 0 0 0 0 0 0 0 0 0 0
0 0 0 0 0 0 0 0 0 0 0 0 0 0 0 0 0
0 0 0 0 0 0 0 0 0 0 0 0 0 0 0 0 0
0 0 0 0 0 0 0 0 0 0 0 0 0 0 0 0 0
0 0 0 0 0 0 0 0 0 0 0 0 0 0 0 0 0
0 0 0 0 0 0 0 0 0 0 0 0 0 0 0 0 0
0 0 0 0 0 0 0 0 0 0 0 0 0 0 0 0 0
0 0 0 0 0 0 0 0 0 0 0 0 0 0 0 0 0
0 0 0 0 0 0 0 0 0 0 0 0 0 0 0 0 0
0 0 0 0 0 0 0 0 0 0 0 0 0 0 0 0 0
0 0 0 0 0 0 0 0 0 0 0 0 0 0 0 0 0
0 0 0 0 0 0 0 0 0 0 0 0 0 0 0 0 0
0 0 0 0 0 0 0 0 0 0 0
0 0 0 0 0 0 0 0 0 0 0 0 0 0 0 0 0
0 0 0 0 0 0 0 0 0 0 0 0 0 0 0 0 0
0 0 0 0 0 0 0 0 0 0 0 0 0 0 0 0 0
0 0 0 0 0 0 0 0 0 0 0 0 0 0 0 0 0
0 0 0 0 0 0 0 0 0 0 0 0 0 0 0 0 0
0 0 0 0 0 0 0 0 0 0 0 0 0 0 0 0 0
0 0 0 0 0 0 0 0 0 0 0 0 0 0 0 0 0
0 15 145 73 14 140 70 14 133 67 13 122 61 0 0 0 0
0 0 0 0 0 0 0 0 0 0 0 0 0 0 0 0 0
0 0 0 0 0 0 0 0 0 0 0 0 0 0 0 0 0
0 0 0 0 0 0 0 0 0 0 0 0 0 0 0 0 0
0 0 0 0 0 0 0 0 0 0 0 0 0 0 0 0 0
0 0 0 0 0 0 0 0 0 0 0 0 0 0 0 0 0
0 0 0 0 0 0 0 0 0 0 0 0 0 0 0 0 0
0 0 0 0 0 0 0 0 0 0 0 0 0 0 0 0 0
0 0 0 0 0 0 0 0 0 0 0 0 0 0 0 0 0
0 0 0 0 0 0 0 0 0 0 0 0 0 0 0 0 0
0 0 0 0 0 0 0 0 0 0 0
0 0 0 0 0 0 0 0 0 0 0 0 0 0 0 0 0
0 0 0 0 0 0 0 0 0 0 0 0 0 0 0 0 0
0 0 0 0 0 0 0 0 0 0 0 0 0 0 0 0 0
0 0 0 0 0 0 0 0 0 0 0 0 0 0 0 0 0
0 0 0 0 0 0 0 0 0 0 0 0 0 0 0 0 0
0 0 0 0 0 0 0 0 0 0 0 0 0 0 0 0 0
0 0 0 0 0 0 18 172 86 18 173 87 18 171 86 17 167
84 17 162 81 16 156 78 15 149 75 15 141 71 14 132 66 13
121 61 11 109 55 10 92 46 0 0 0 0 0 0 0 0 0
0 0 0 0 0 0 0 0 0 0 0 0 0 0 0 0 0
0 0 0 0 0 0 0 0 0 0 0 0 0 0 0 0 0
0 0 0 0 0 0 0 0 0 0 0 0 0 0 0 0 0
0 0 0 0 0 0 0 0 0 0 0 0 0 0 0 0 0
0 0 0 0 0 0 0 0 0 0 0 0 0 0 0 0 0
0 0 0 0 0 0 0 0 0 0 0 0 0 0 0 0 0
0 0 0 0 0 0 0 0 0 0 0 0 0 0 0 0 0
0 0 0 0 0 0 0 0 0 0 0 0 0 0 0 0 0
0 0 0 0 0 0 0 0 0 0 0
0 0 0 0 0 0 0 0 0 0 0 0 0 0 0 0 0
0 0 0 0 0 0 0 0 0 0 0 0 0 0 0 0 0
0 0 0 0 0 0 0 0 0 0 0 0 0 0 0 0 0
0 0 0 0 0 0 0 0 0 0 0 0 0 0 0 0 0
0 0 0 0 0 0 0 0 0 0 0 0 0 0 0 0 0
0 0 0 0 0 0 0 0 0 0 0 0 0 0 0 0 0
19 184 92 19 186 93 19 185 93 19 182 91 18 178 89 18 173
87 17 168 84 17 161 81 16 155 78 15 147 74 14 139 70 13
130 65 12 120 60 11 108 54 10 94 47 8 75 38 0 0 0
0 0 0 0 0 0 0 0 0 0 0 0 0 0 0 0 0
0 0 0 0 0 0 0 0 0 0 0 0 0 0 0 0 0
0 0 0 0 0 0 0 0 0 0 0 0 0 0 0 0 0
0 0 0 0 0 0 0 0 0 0 0 0 0 0 0 0 0
0 0 0 0 0 0 0 0 0 0 0 0 0 0 0 0 0
0 0 0 0 0 0 0 0 0 0 0 0 0 0 0 0 0
0 0 0 0 0 0 0 0 0 0 0 0 0 0 0 0 0
0 0 0 0 0 0 0 0 0 0 0 0 0 0 0 0 0
0 0 0 0 0 0 0 0 0 0 0
0 0 0 0 0 0 0 0 0 0 0 0 0 0 0 0 0
0 0 0 0 0 0 0 0 0 0 0 0 0 0 0 0 0
0 0 0 0 0 0 0 0 0 0 0 0 0 0 0 0 0
0 0 0 0 0 0 0 0 0 0 0 0 0 0 0 0 0
0 0 0 0 0 0 0 0 0 0 0 0 0 0 0 0 0
0 0 0 0 0 0 0 0 0 0 0 19 184 92 20 193 97
20 194 97 20 192 96 19 189 95 19 186 93 19 181 91 18 176
88 17 170 85 17 164 82 16 157 79 15 150 75 15 142 71 14
134 67 13 124 62 12 114 57 11 103 52 9 89 45 8 73 37
0 0 0 0 0 0 0 0 0 0 0 0 0 0 0 0 0
0 0 0 0 0 0 0 0 0 0 0 0 0 0 0 0 0
0 0 0 0 0 0 0 0 0 0 0 0 0 0 0 0 0
0 0 0 0 0 0 0 0 0 0 0 0 0 0 0 0 0
0 0 0 0 0 0 0 0 0 0 0 0 0 0 0 0 0
0 0 0 0 0 0 0 0 0 0 0 0 0 0 0 0 0
0 0 0 0 0 0 0 0 0 0 0 0 0 0 0 0 0
0 0 0 0 0 0 0 0 0 0 0 0 0 0 0 0 0
0 0 0 0 0 0 0 0 0 0 0
0 0 0 0 0 0 0 0 0 0 0 0 0 0 0 0 0
0 0 0 0 0 0 0 0 0 0 0 0 0 0 0 0 0
0 0 0 0 0 0 0 0 0 0 0 0 0 0 0 0 0
0 0 0 0 0 0 0 0 0 0 0 0 0 0 0 0 0
0 0 0 0 0 0 0 0 0 0 0 0 0 0 0 0 0
0 0 0 0 0 0 0 0 20 192 96 20 198 99 20 199 100
20 197 99 20 195 98 20 191 96 19 187 94 19 182 91 18 177
89 18 172 86 17 165 83 16 159 80 16 152 76 15 144 72 14
136 68 13 127 64 12 117 59 11 107 54 10 95 48 9 82 41
7 65 33 4 40 20 0 0 0 0 0 0 0 0 0 0 0
0 0 0 0 0 0 0 0 0 0 0 0 0 0 0 0 0
0 0 0 0 0 0 0 0 0 0 0 0 0 0 0 0 0
0 0 0 0 0 0 0 0 0 0 0 0 0 0 0 0 0
0 0 0 0 0 0 0 0 0 0 0 0 0 0 0 0 0
0 0 0 0 0 0 0 0 0 0 0 0 0 0 0 0 0
0 0 0 0 0 0 0 0 0 0 0 0 0 0 0 0 0
0 0 0 0 0 0 0 0 0 0 0 0 0 0 0 0 0
0 0 0 0 0 0 0 0 0 0 0
0 0 0 0 0 0 0 0 0 0 0 0 0 0 0 0 0
0 0 0 0 0 0 0 0 0 0 0 0 0 0 0 0 0
0 0 0 0 0 0 0 0 0 0 0 0 0 0 0 0 0
0 0 0 0 0 0 0 0 0 0 0 0 0 0 0 0 0
0 0 0 0 0 0 0 0 0 0 0 0 0 0 0 0 0
0 0 0 0 0 20 194 97 21 201 101 21 202 101 21 201 101
20 199 100 20 196 98 20 192 96 19 187 94 19 183 92 18 177
89 18 172 86 17 165 83 16 159 80 16 152 76 15 144 72 14
136 68 13 128 64 12 119 60 11 109 55 10 98 49 9 86 43
8 72 36 6 55 28 3 28 14 0 0 0 0 0 0 0 0
0 0 0 0 0 0 0 0 0 0 0 0 0 0 0 0 0
0 0 0 0 0 0 0 0 0 0 0 0 0 0 0 0 0
0 0 0 0 0 0 0 0 0 0 0 0 0 0 0 0 0
0 0 0 0 0 0 0 0 0 0 0 0 0 0 0 0 0
0 0 0 0 0 0 0 0 0 0 0 0 0 0 0 0 0
0 0 0 0 0 0 0 0 0 0 0 0 0 0 0 0 0
0 0 0 0 0 0 0 0 0 0 0 0 0 0 0 0 0
0 0 0 0 0 0 0 0 0 0 0
0 0 0 0 0 0 0 0 0 0 0 0 0 0 0 0 0
0 0 0 0 0 0 0 0 0 0 0 0 0 0 0 0 0
0 0 0 0 0 0 0 0 0 0 0 0 0 0 0 0 0
0 0 0 0 0 0 0 0 0 0 0 0 0 0 0 0 0
0 0 0 0 0 0 0 0 0 0 0 0 0 0 0 0 0
0 0 20 192 96 21 202 101 21 204 102 21 203 102 21 201 101
20 199 100 20 195 98 20 191 96 19 187 94 19 182 91 18 176
88 18 171 86 17 165 83 16 158 79 16 151 76 15 144 72 14
136 68 13 128 64 12 119 60 11 109 55 10 99 50 9 88 44
8 75 38 6 60 30 5 42 21 3 26 13 0 0 0 0 0
0 0 0 0 0 0 0 0 0 0 0 0 0 0 0 0 0
0 0 0 0 0 0 0 0 0 0 0 0 0 0 0 0 0
0 0 0 0 0 0 0 0 0 0 0 0 0 0 0 0 0
0 0 0 0 0 0 0 0 0 0 0 0 0 0 0 0 0
0 0 0 0 0 0 0 0 0 0 0 0 0 0 0 0 0
0 0 0 0 0 0 0 0 0 0 0 0 0 0 0 0 0
0 0 0 0 0 0 0 0 0 0 0 0 0 0 0 0 0
0 0 0 0 0 0 0 0 0 0 0
0 0 0 0 0 0 0 0 0 0 0 0 0 0 0 0 0
0 0 0 0 0 0 0 0 0 0 0 0 0 0 0 0 0
0 0 0 0 0 0 0 0 0 0 0 0 0 0 0 0 0
0 0 0 0 0 0 0 0 0 0 0 0 0 0 0 0 0
0 0 0 0 0 0 0 0 0 0 0 0 0 0 0 0 0
0 0 21 201 101 21 204 102 21 204 102 21 203 102 21 201 101
20 198 99 20 194 97 19 190 95 19 185 93 18 180 90 18 175
88 17 169 85 17 163 82 16 157 79 15 150 75 15 143 72 14
135 68 13 127 64 12 118 59 11 109 55 10 99 50 9 88 44
8 76 38 7 63 32 5 47 24 3 27 14 0 0 0 0 0
0 0 0 0 0 0 0 0 0 0 0 0 0 0 0 0 0
0 0 0 0 0 0 0 0 0 0 0 0 0 0 0 0 0
0 0 0 0 0 0 0 0 0 0 0 0 0 0 0 0 0
0 0 0 0 0 0 0 0 0 0 0 0 0 0 0 0 0
0 0 0 0 0 0 0 0 0 0 0 0 0 0 0 0 0
0 0 0 0 0 0 0 0 0 0 0 0 0 0 0 0 0
0 0 0 0 0 0 0 0 0 0 0 0 0 0 0 0 0
0 0 0 0 0 0 0 0 0 0 0
28 25 25 28 25 25 28 25 25 28 25 25 0 3 3 0 3
3 28 25 25 0 3 3 28 25 25 0 3 3 28 25 25 0
3 3 0 3 3 28 25 25 0 3 3 28 25 25 0 3 3
28 25 25 0 3 3 0 3 3 28 25 25 0 3 3 28 25
25 0 3 3 28 25 25 0 3 3 0 3 3 28 25 25 20
196 98 21 203 102 21 204 102 21 204 102 21 202 101 20 199 100
20 196 98 20 192 96 19 188 94 19 184 92 18 178 89 18 173
87 17 167 84 17 161 81 16 155 78 15 148 74 15 141 71 14
133 67 13 125 63 12 117 59 11 108 54 10 98 49 9 88 44
8 76 38 7 64 32 5 49 25 4 32 16 3 26 13 0 3
3 28 25 25 0 3 3 0 3 3 28 25 25 0 3 3 28
25 25 0 3 3 28 25 25 28 25 25 28 25 25 28 25 25
0 3 3 28 25 25 0 3 3 28 25 25 0 3 3 28 25
25 28 25 25 0 3 3 28 25 25 0 3 3 28 25 25 0
3 3 28 25 25 28 25 25 0 3 3 28 25 25 0 3 3
28 25 25 0 3 3 28 25 25 28 25 25 0 3 3 28 25
25 0 3 3 28 25 25 0 3 3 28 25 25 28 25 25 0
3 3 0 3 3 0 3 3 0 3 3
43 39 39 0 5 5 43 39 39 43 39 39 0 5 5 43 39
39 0 5 5 0 5 5 0 5 5 44 39 39 0 5 5 0
5 5 44 40 40 0 5 5 0 5 5 44 40 40 0 5 5
0 5 5 44 40 40 0 5 5 0 5 5 44 40 40 0 5
5 0 5 5 44 40 40 0 5 5 0 5 5 19 181 91 20
199 100 21 203 102 21 203 102 21 202 101 20 200 100 20 197 99
20 194 97 19 190 95 19 186 93 19 181 91 18 176 88 18 171
86 17 165 83 16 159 80 16 153 77 15 146 73 14 139 70 14
131 66 13 123 62 12 115 58 11 106 53 10 97 49 9 87 44
8 76 38 7 64 32 5 50 25 4 34 17 3 26 13 0 5
5 0 5 5 45 40 40 0 5 5 0 5 5 44 40 40 0
5 5 0 5 5 44 40 40 0 5 5 0 5 5 44 40 40
0 5 5 0 5 5 44 40 40 44 40 40 0 5 5 44 39
39 44 39 39 0 5 5 44 39 39 44 39 39 0 5 5 43
39 39 43 39 39 0 5 5 43 39 39 43 39 39 0 5 5
43 39 39 43 39 39 0 5 5 43 39 39 43 38 38 0 5
5 43 38 38 42 38 38 42 38 38 0 5 5 42 38 38 0
5 5 0 5 5 42 38 38 0 5 5
0 6 6 0 6 6 58 52 52 58 52 52 0 6 6 58 53
53 0 6 6 0 6 6 59 53 53 0 6 6 0 6 6 59
53 53 0 6 6 59 53 53 59 53 53 0 6 6 59 54 54
59 54 54 0 6 6 60 54 54 60 54 54 0 6 6 60 54
54 0 6 6 0 6 6 60 54 54 0 6 6 20 192 96 20
199 100 21 201 101 21 201 101 20 200 100 20 198 99 20 195 98
20 191 96 26 194 100 35 199 108 20 180 91 18 173 87 17 168
84 17 162 81 16 156 78 15 150 75 15 143 72 14 136 68 13
129 65 13 121 61 12 113 57 11 104 52 10 95 48 9 85 43
8 74 37 7 62 31 5 49 25 4 34 17 3 26 13 3 26
13 0 6 6 59 53 53 59 53 53 0 6 6 59 53 53 59
53 53 0 6 6 59 53 53 0 6 6 0 6 6 58 53 53
0 6 6 0 6 6 58 52 52 0 6 6 58 52 52 58 52
52 0 6 6 57 52 52 57 52 52 0 6 6 57 51 51 0
6 6 0 6 6 57 51 51 0 6 6 0 6 6 56 51 51
0 6 6 0 6 6 56 50 50 0 6 6 56 50 50 56 50
50 0 6 6 55 50 50 55 50 50 0 6 6 55 49 49 0
6 6 0 6 6 54 49 49 54 49 49
72 65 65 72 65 65 0 8 8 0 8 8 0 8 8 73 65
65 73 66 66 0 8 8 0 8 8 73 66 66 73 66 66 0
8 8 0 8 8 73 66 66 73 66 66 0 8 8 0 8 8
74 66 66 74 66 66 0 8 8 0 8 8 74 67 67 0 8
8 0 8 8 0 8 8 74 67 67 74 67 67 20 193 97 20
198 99 20 199 100 20 199 100 20 197 99 20 195 98 20 192 96
21 190 96 66 231 140 74 236 146 21 178 91 17 170 85 17 165
83 16 159 80 16 153 77 15 147 74 14 140 70 14 133 67 13
126 63 12 118 59 11 110 55 11 101 51 10 92 46 9 82 41
8 72 36 6 60 30 5 48 24 4 33 17 3 26 13 3 26
13 0 8 8 72 65 65 72 65 65 0 8 8 0 8 8 0
8 8 71 64 64 0 8 8 0 8 8 0 8 8 71 64 64
71 64 64 0 7 7 0 7 7 70 63 63 70 63 63 0 7
7 0 7 7 70 63 63 69 62 62 69 62 62 0 7 7 69
62 62 69 62 62 0 7 7 0 7 7 68 61 61 68 61 61
0 7 7 0 7 7 67 61 61 67 61 61 0 7 7 0 7
7 67 60 60 66 60 60 0 7 7 0 7 7 66 59 59 66
59 59 66 59 59 0 7 7 0 7 7
0 9 9 85 77 77 85 77 77 86 77 77 0 9 9 86 77
77 86 77 77 0 9 9 86 77 77 0 9 9 0 9 9 0
9 9 86 78 78 86 78 78 86 78 78 0 9 9 86 78 78
86 78 78 87 78 78 87 78 78 87 78 78 0 9 9 0 9
9 87 78 78 87 78 78 0 9 9 18 176 88 20 191 96 20
195 98 20 196 98 20 195 98 20 194 97 20 191 96 19 188 94
20 186 94 37 199 109 30 188 100 18 172 86 17 166 83 17 161
81 16 155 78 15 149 75 15 143 72 14 137 69 13 130 65 13
122 61 12 115 58 11 107 54 10 98 49 9 89 45 8 79 40
7 69 35 6 58 29 5 45 23 4 31 16 3 26 13 3 26
13 83 75 75 0 9 9 0 9 9 0 9 9 83 74 74 83
74 74 82 74 74 0 9 9 0 9 9 82 74 74 0 9 9
81 73 73 0 9 9 81 73 73 0 9 9 81 73 73 80 72
72 80 72 72 0 8 8 0 8 8 80 72 72 79 71 71 0
8 8 0 8 8 0 8 8 0 8 8 0 8 8 78 70 70
0 8 8 0 8 8 77 70 70 77 69 69 77 69 69 77 69
69 0 8 8 76 69 69 0 8 8 0 8 8 76 68 68 0
8 8 0 8 8 0 8 8 75 67 67
0 10 10 0 10 10 97 88 88 97 88 88 97 88 88 97 88
88 0 10 10 0 10 10 0 10 10 98 88 88 98 88 88 98
88 88 98 88 88 0 10 10 0 10 10 0 10 10 98 88 88
98 88 88 98 88 88 0 10 10 0 10 10 0 10 10 0 10
10 98 88 88 98 88 88 98 88 88 18 178 89 19 189 95 20
192 96 20 193 97 20 192 96 19 190 95 19 187 94 19 184 92
19 181 91 19 177 89 18 173 87 17 168 84 17 163 82 16 157
79 16 152 76 15 146 73 14 139 70 14 133 67 13 126 63 12
119 60 12 111 56 11 103 52 10 95 48 9 86 43 8 76 38
7 66 33 6 55 28 5 42 21 3 29 15 3 26 13 3 26
13 3 26 13 93 84 84 93 83 83 0 10 10 0 10 10 0
10 10 0 10 10 92 82 82 91 82 82 91 82 82 0 10 10
0 10 10 0 9 9 90 81 81 90 81 81 90 81 81 89 81
81 0 9 9 0 9 9 0 9 9 88 80 80 88 79 79 88
79 79 88 79 79 0 9 9 0 9 9 0 9 9 87 78 78
86 78 78 86 78 78 0 9 9 0 9 9 0 9 9 0 9
9 85 77 77 85 76 76 84 76 76 0 9 9 0 9 9 0
9 9 0 9 9 83 75 75 83 75 75
0 11 11 108 97 97 108 97 97 108 97 97 108 97 97 0 11
11 0 11 11 0 11 11 0 11 11 108 97 97 108 97 97 108
97 97 108 97 97 0 11 11 0 11 11 0 11 11 0 11 11
0 11 11 108 97 97 108 97 97 107 97 97 107 97 97 0 11
11 0 11 11 0 11 11 0 11 11 18 176 88 19 185 93 19
188 94 19 188 94 19 188 94 19 186 93 19 183 92 18 180 90
18 176 88 18 172 86 17 168 84 17 163 82 16 158 79 16 153
77 15 147 74 15 142 71 14 135 68 13 129 65 13 122 61 12
115 58 11 107 54 10 99 50 10 91 46 9 82 41 8 72 36
7 62 31 6 51 26 4 39 20 3 26 13 3 26 13 3 26
13 3 26 13 101 91 91 101 91 91 101 91 91 100 90 90 0
10 10 0 10 10 0 10 10 0 10 10 99 89 89 99 89 89
99 89 89 98 89 89 0 10 10 0 10 10 0 10 10 0 10
10 97 87 87 97 87 87 97 87 87 96 87 87 0 10 10 0
10 10 0 10 10 0 10 10 95 85 85 95 85 85 94 85 85
94 85 85 94 84 84 0 10 10 0 10 10 0 10 10 0 10
10 92 83 83 92 83 83 92 83 83 92 82 82 0 10 10 0
10 10 0 10 10 0 9 9 90 81 81
117 105 105 117 105 105 117 105 105 117 105 105 0 12 12 0 12
12 0 12 12 0 12 12 117 105 105 117 105 105 117 105 105 0
12 12 0 12 12 0 12 12 0 12 12 0 12 12 0 12 12
116 105 105 116 105 105 116 104 104 116 104 104 116 104 104 116 104
104 0 12 12 0 12 12 0 12 12 18 173 87 19 181 91 19
183 92 19 184 92 19 183 92 19 181 91 18 179 90 18 175 88
18 172 86 17 168 84 17 164 82 16 159 80 16 154 77 15 149
75 15 143 72 14 137 69 14 131 66 13 124 62 12 117 59 11
110 55 11 103 52 10 95 48 9 86 43 8 77 39 7 68 34
6 58 29 5 47 24 4 35 18 3 26 13 3 26 13 3 26
13 3 26 13 108 98 98 0 11 11 0 11 11 0 11 11 0
11 11 0 11 11 107 96 96 106 96 96 106 96 96 106 95 95
106 95 95 0 11 11 0 11 11 0 11 11 0 11 11 104 94
94 104 94 94 104 93 93 103 93 93 0 11 11 0 11 11 0
11 11 0 11 11 0 11 11 0 11 11 101 91 91 101 91 91
101 91 91 100 90 90 100 90 90 100 90 90 0 10 10 0 10
10 0 10 10 99 89 89 98 89 89 98 88 88 98 88 88 0
10 10 0 10 10 0 10 10 0 10 10
125 112 112 125 112 112 125 112 112 0 13 13 0 13 13 0 13
13 0 13 13 125 112 112 124 112 112 124 112 112 124 112 112 124
112 112 0 13 13 0 13 13 0 13 13 124 111 111 0 13 13
0 13 13 123 111 111 123 111 111 123 111 111 123 111 111 123 111
111 0 13 13 0 13 13 0 13 13 17 167 84 18 176 88 18
178 89 18 179 90 18 178 89 18 176 88 18 174 87 18 171 86
17 167 84 17 163 82 16 159 80 16 154 77 15 149 75 15 144
72 14 138 69 14 132 66 13 126 63 12 120 60 12 113 57 11
106 53 10 98 49 9 90 45 9 82 41 8 73 37 7 63 32
6 53 27 5 42 21 3 30 15 3 26 13 3 26 13 3 26
13 3 26 13 0 12 12 0 12 12 0 12 12 0 12 12 113
102 102 113 102 102 113 102 102 112 101 101 0 12 12 112 101 101
0 12 12 0 12 12 0 12 12 111 100 100 0 11 11 110 99
99 110 99 99 110 99 99 109 98 98 0 11 11 0 11 11 0
11 11 0 11 11 0 11 11 107 97 97 107 96 96 0 11 11
106 96 96 106 96 96 106 95 95 0 11 11 0 11 11 0 11
11 0 11 11 0 11 11 104 94 94 104 93 93 103 93 93 103
93 93 0 11 11 0 11 11 0 11 11
132 119 119 0 14 14 0 14 14 0 14 14 0 14 14 0 14
14 0 14 14 0 14 14 131 118 118 131 118 118 131 118 118 131
118 118 131 118 118 130 117 117 0 13 13 0 13 13 0 13 13
0 13 13 0 13 13 0 13 13 129 116 116 129 116 116 129 116
116 129 116 116 129 116 116 128 116 116 17 161 81 17 170 85 18
172 86 18 173 87 18 172 86 18 171 86 17 168 84 17 165 83
17 162 81 16 158 79 16 154 77 15 149 75 15 144 72 14 139
70 14 133 67 13 127 64 13 121 61 12 115 58 11 108 54 11
101 51 10 93 47 9 85 43 8 77 39 7 68 34 6 58 29
5 48 24 4 37 19 3 26 13 3 26 13 3 26 13 3 26
13 3 26 13 120 108 108 120 108 108 119 107 107 119 107 107 0
12 12 0 12 12 0 12 12 0 12 12 0 12 12 0 12 12
117 105 105 117 105 105 116 105 105 116 104 104 116 104 104 115 104
104 0 12 12 0 12 12 0 12 12 0 12 12 0 12 12 0
12 12 113 102 102 113 102 102 113 101 101 112 101 101 112 101 101
112 100 100 0 12 12 0 12 12 0 12 12 0 11 11 0 11
11 0 11 11 109 99 99 109 98 98 109 98 98 108 98 98 108
97 97 108 97 97 0 11 11 0 11 11
0 14 14 0 14 14 0 14 14 137 124 124 137 124 124 137 123
123 137 123 123 137 123 123 137 123 123 137 123 123 0 14 14 0
14 14 0 14 14 0 14 14 0 14 14 0 14 14 135 122 122
135 122 122 135 122 122 135 121 121 135 121 121 134 121 121 134 121
121 0 14 14 0 14 14 0 14 14 16 152 76 17 163 82 17
166 83 17 167 84 17 166 83 17 165 83 17 162 81 16 160 80
16 156 78 16 152 76 15 148 74 15 143 72 14 139 70 14 133
67 13 128 64 13 122 61 12 116 58 11 109 55 11 102 51 10
95 48 9 88 44 8 80 40 8 71 36 7 62 31 6 53 27
5 42 21 4 31 16 3 26 13 3 26 13 3 26 13 3 26
13 3 26 13 125 112 112 124 112 112 124 112 112 124 111 111 123
111 111 0 13 13 0 13 13 0 13 13 0 13 13 0 13 13
0 13 13 0 13 13 121 109 109 121 109 109 120 108 108 120 108
108 120 108 108 78 51 99 79 41 110 78 27 118 74 12 124 69
135 16 61 106 25 47 69 30 0 12 12 0 12 12 116 105 105
116 105 105 116 104 104 115 104 104 115 104 104 115 103 103 0 12
12 0 12 12 0 12 12 0 12 12 0 12 12 0 12 12 0
12 12 112 101 101 112 101 101 112 101 101
0 15 15 0 15 15 0 15 15 0 15 15 0 15 15 0 15
15 142 128 128 142 128 128 142 127 127 141 127 127 141 127 127 141
127 127 141 127 127 0 15 15 0 14 14 0 14 14 0 14 14
0 14 14 0 14 14 0 14 14 0 14 14 139 125 125 139 125
125 138 125 125 138 124 124 138 124 124 15 141 71 16 155 78 16
159 80 16 160 80 16 160 80 16 158 79 16 156 78 16 153 77
15 150 75 15 146 73 15 142 71 14 138 69 14 133 67 13 128
64 13 122 61 12 116 58 11 110 55 11 103 52 10 97 49 9
89 45 9 82 41 8 74 37 7 65 33 6 56 28 5 47 24
4 36 18 3 26 13 3 26 13 3 26 13 3 26 13 3 26
13 3 26 13 0 13 13 0 13 13 0 13 13 0 13 13 0
13 13 0 13 13 0 13 13 126 114 114 126 114 114 126 113 113
126 113 113 125 113 113 125 112 112 125 112 112 0 13 13 86 93
81 90 86 94 91 73 106 90 58 116 88 41 125 84 24 132 79
8 136 73 138 21 66 110 30 56 80 36 40 45 35 120 108 108
120 108 108 120 108 108 0 12 12 0 12 12 0 12 12 0 12
12 0 12 12 0 12 12 0 12 12 117 106 106 117 105 105 117
105 105 116 105 105 116 104 104 116 104 104
147 132 132 147 132 132 0 15 15 0 15 15 0 15 15 0 15
15 0 15 15 0 15 15 0 15 15 0 15 15 145 131 131 145
131 131 145 130 130 145 130 130 144 130 130 144 130 130 144 130 130
144 129 129 0 15 15 0 15 15 0 15 15 0 15 15 0 15
15 0 15 15 0 15 15 0 15 15 142 127 127 15 146 73 16
151 76 16 153 77 16 153 77 16 152 76 15 150 75 15 147 74
15 144 72 14 140 70 14 136 68 14 131 66 13 127 64 13 121
61 12 116 58 11 110 55 11 104 52 10 97 49 10 91 46 9
83 42 8 76 38 7 68 34 6 59 30 5 50 25 4 40 20
3 30 15 3 26 13 3 26 13 3 26 13 3 26 13 3 26
13 0 14 14 132 119 119 132 119 119 132 119 119 131 118 118 131
118 118 131 118 118 130 117 117 130 117 117 0 13 13 0 13 13
129 116 116 0 13 13 0 13 13 76 104 54 92 121 69 96 114
82 97 101 94 97 85 106 95 68 117 92 51 126 89 33 133 84
16 139 79 156 17 72 128 27 64 100 35 54 72 40 40 42 38
0 13 13 0 13 13 0 13 13 0 13 13 0 13 13 122 110
110 122 110 110 121 109 109 121 109 109 121 109 109 121 109 109 120
108 108 120 108 108 0 12 12 0 12 12
151 136 136 151 136 136 151 136 136 150 135 135 150 135 135 150 135
135 0 15 15 0 15 15 0 15 15 0 15 15 0 15 15 149
134 134 148 134 134 0 15 15 0 15 15 0 15 15 0 15 15
147 133 133 147 132 132 147 132 132 146 132 132 146 132 132 146 131
131 146 131 131 0 15 15 0 15 15 0 15 15 14 134 67 15
142 71 15 145 73 15 145 73 15 144 72 15 143 72 14 140 70
14 137 69 14 133 67 13 129 65 13 125 63 12 120 60 12 115
58 11 109 55 11 104 52 10 97 49 10 91 46 9 84 42 8
77 39 7 69 35 7 61 31 6 52 26 5 43 22 4 33 17
3 26 13 3 26 13 3 26 13 3 26 13 3 26 13 3 26
13 136 122 122 135 122 122 0 14 14 135 121 121 135 121 121 0
14 14 0 14 14 0 14 14 133 120 120 0 14 14 133 119 119
132 119 119 132 119 119 132 119 119 93 141 55 98 137 67 100 125
80 101 110 93 100 93 105 98 75 115 95 57 125 91 39 133 87
21 139 82 5 143 75 140 24 68 112 33 60 85 39 49 58 42
34 30 37 127 114 114 126 114 114 0 13 13 126 113 113 125 113
113 125 113 113 125 112 112 124 112 112 0 13 13 0 13 13 0
13 13 0 13 13 0 13 13 0 13 13
154 139 139 154 139 139 154 138 138 0 16 16 0 16 16 0 16
16 0 16 16 0 16 16 0 16 16 0 16 16 0 16 16 0
16 16 151 136 136 151 136 136 151 136 136 151 136 136 150 135 135
150 135 135 150 135 135 150 135 135 149 135 135 149 134 134 0 15
15 0 15 15 0 15 15 0 15 15 0 15 15 12 118 59 14
132 66 14 136 68 14 137 69 14 136 68 14 135 68 14 132 66
13 130 65 13 126 63 13 122 61 12 118 59 12 113 57 11 108
54 11 103 52 10 97 49 10 91 46 9 84 42 8 77 39 7
70 35 7 62 31 6 54 27 5 45 23 4 36 18 3 26 13
3 26 13 3 26 13 3 26 13 3 26 13 3 26 13 3 26
13 139 125 125 138 125 125 0 14 14 138 124 124 0 14 14 0
14 14 0 14 14 0 14 14 0 14 14 0 14 14 135 122 122
0 14 14 135 121 121 90 152 40 98 154 52 101 146 65 102 132
78 102 116 90 101 99 102 99 80 113 96 62 123 92 44 131 88
26 137 83 9 142 77 146 21 70 120 31 62 93 38 53 67 42
41 42 41 24 16 29 0 13 13 129 116 116 129 116 116 128 115
115 128 115 115 128 115 115 127 115 115 127 114 114 127 114 114 126
114 114 0 13 13 0 13 13 0 13 13
157 141 141 157 141 141 156 141 141 156 141 141 156 140 140 0 16
16 156 140 140 155 140 140 155 140 140 155 139 139 0 16 16 0
16 16 0 16 16 0 16 16 0 16 16 0 16 16 0 16 16
0 16 16 0 16 16 0 16 16 152 137 137 152 137 137 151 136
136 151 136 136 151 136 136 151 136 136 150 135 135 150 135 135 12
119 60 13 125 63 13 127 64 13 127 64 13 126 63 13 124 62
13 122 61 12 118 59 12 115 58 11 110 55 11 106 53 11 101
51 10 95 48 9 89 45 9 83 42 8 77 39 7 70 35 7
62 31 6 54 27 5 46 23 4 37 19 3 28 14 3 26 13
3 26 13 3 26 13 3 26 13 3 26 13 3 26 13 0 15
15 141 127 127 0 15 15 0 15 15 0 14 14 140 126 126 26
23 23 0 3 3 26 23 23 26 23 23 0 3 3 26 23 23
26 23 23 79 144 27 94 164 38 99 161 50 102 151 63 102 136
75 102 120 88 101 102 99 98 84 110 95 65 120 92 47 128 88
29 135 83 12 139 77 150 19 71 124 28 63 98 36 55 72 41
44 48 41 30 25 35 13 5 20 131 118 118 131 118 118 0 14
14 0 14 14 0 13 13 0 13 13 130 117 117 0 13 13 0
13 13 0 13 13 0 13 13 0 13 13
0 16 16 0 16 16 0 16 16 0 16 16 0 16 16 0 16
16 0 16 16 158 142 142 0 16 16 157 141 141 157 141 141 157
141 141 156 141 141 156 141 141 156 140 140 156 140 140 155 140 140
155 140 140 0 16 16 0 16 16 0 16 16 0 16 16 0 16
16 0 16 16 0 16 16 0 16 16 0 16 16 152 137 137 10
98 49 12 113 57 12 117 59 12 118 59 12 117 59 12 116 58
12 113 57 11 110 55 11 106 53 11 102 51 10 98 49 10 93
47 9 87 44 9 81 41 8 75 38 7 69 35 7 62 31 6
54 27 5 46 23 4 38 19 3 29 15 3 26 13 3 26 13
3 26 13 3 26 13 3 26 13 3 26 13 3 26 13 0 3
3 26 23 23 0 3 3 26 23 23 26 23 23 0 3 3 0
3 3 26 23 23 0 3 3 0 3 3 0 3 3 26 23 23
0 3 3 85 161 24 95 169 35 99 164 47 101 152 60 102 138
73 101 121 85 105 109 102 100 88 110 94 67 116 91 49 125 87
31 131 82 15 136 76 151 17 70 125 26 63 100 34 55 75 39
45 51 40 33 29 36 15 8 20 0 14 14 0 14 14 0 14
14 133 120 120 0 14 14 132 119 119 132 119 119 132 119 119 131
118 118 131 118 118 131 118 118 131 118 118
0 17 17 0 17 17 0 17 17 0 17 17 0 16 16 160 144
144 160 144 144 0 16 16 159 144 144 159 143 143 159 143 143 0
16 16 158 143 143 158 142 142 158 142 142 158 142 142 0 16 16
0 16 16 0 32 142 0 30 134 133 106 14 111 89 12 78 63
8 0 16 16 0 16 16 0 16 16 0 16 16 154 139 139 154
139 139 10 95 48 11 104 52 11 106 53 11 107 54 11 106 53
11 104 52 11 101 51 10 97 49 10 93 47 9 89 45 9 84
42 8 79 40 8 73 37 7 67 34 6 60 30 6 53 27 5
45 23 4 37 19 3 29 15 3 26 13 3 26 13 3 26 13
3 26 13 3 26 13 3 26 13 3 26 13 26 23 23 26 23
23 26 23 23 26 23 23 26 23 23 26 23 23 0 3 3 0
3 3 0 3 3 0 3 3 0 3 3 0 3 3 0 3 3
0 3 3 86 165 22 94 170 33 98 163 45 99 152 57 100 137
70 99 121 82 128 134 124 103 93 111 92 67 113 89 49 121 85
32 127 80 16 131 75 1 134 69 124 24 62 99 32 54 75 37
44 52 38 33 30 35 17 11 22 136 122 122 0 14 14 0 14
14 0 14 14 135 121 121 0 14 14 0 14 14 134 121 121 134
120 120 133 120 120 133 120 120 133 120 120
0 17 17 0 17 17 0 17 17 162 146 146 162 146 146 162 146
146 162 146 146 161 145 145 161 145 145 161 145 145 161 145 145 160
144 144 160 144 144 160 144 144 0 16 16 0 16 16 0 38 169
1 38 167 1 35 158 161 129 17 143 115 15 123 98 13 99 79
10 70 56 7 26 21 3 0 16 16 156 141 141 156 140 140 156
140 140 155 140 140 9 87 44 10 93 47 10 95 48 10 95 48
10 93 47 10 91 46 9 88 44 9 84 42 8 80 40 8 75
38 7 69 35 7 64 32 6 57 29 6 51 26 5 44 22 4
36 18 3 28 14 3 26 13 3 26 13 3 26 13 3 26 13
3 26 13 3 26 13 3 26 13 26 23 23 26 23 23 26 23
23 26 23 23 26 23 23 26 23 23 26 23 23 26 23 23 0
3 3 0 3 3 0 3 3 0 3 3 0 3 3 0 3 3
0 3 3 84 163 21 91 167 31 95 160 43 97 149 55 97 135
67 96 119 79 95 102 90 93 84 100 90 66 108 86 49 116 82
32 122 78 17 126 72 2 128 66 121 23 60 97 30 52 73 34
43 51 36 32 30 33 17 12 22 0 14 14 0 14 14 0 14
14 0 14 14 0 14 14 0 14 14 0 14 14 0 14 14 0
14 14 0 14 14 135 122 122 135 121 121
0 17 17 0 17 17 0 17 17 0 17 17 0 17 17 0 17
17 0 17 17 0 17 17 0 17 17 0 17 17 0 17 17 0
17 17 162 146 146 161 145 145 161 145 145 1 40 180 1 40 178
1 38 170 1 36 159 161 129 17 143 115 15 124 99 13 101 81
11 75 60 8 44 35 5 26 21 3 0 16 16 0 16 16 0
16 16 0 16 16 0 16 16 8 75 38 8 80 40 9 82 41
9 81 41 8 79 40 8 77 39 8 73 37 7 69 35 7 64
32 6 59 30 6 53 27 5 47 24 4 40 20 4 33 17 3
26 13 3 26 13 3 26 13 3 26 13 3 26 13 3 26 13
3 26 13 3 26 13 0 3 3 0 3 3 0 3 3 0 3
3 0 3 3 0 3 3 0 3 3 0 3 3 0 3 3 0
3 3 26 23 23 26 23 23 26 23 23 26 23 23 26 23 23
26 23 23 80 156 19 88 161 30 91 155 41 93 144 52 94 130
64 93 115 75 91 99 86 89 82 95 86 65 104 83 48 111 79
32 117 74 17 121 69 3 122 63 116 21 57 93 28 49 70 32
40 48 33 29 28 30 15 10 19 13 4 21 140 126 126 139 125
125 139 125 125 139 125 125 138 125 125 138 124 124 138 124 124 138
124 124 137 124 124 137 123 123 137 123 123
0 17 17 0 17 17 0 17 17 0 17 17 0 17 17 0 17
17 0 17 17 0 17 17 0 17 17 0 17 17 164 147 147 163
147 147 163 147 147 163 147 147 1 40 180 1 41 183 1 40 177
1 38 168 173 138 18 157 126 16 139 112 14 120 96 12 98 78
10 73 59 8 45 36 5 26 21 3 0 16 16 0 16 16 0
16 16 0 16 16 0 16 16 0 16 16 6 60 30 7 65 33
7 67 34 7 66 33 7 64 32 7 61 31 6 57 29 6 53
27 5 48 24 5 42 21 4 36 18 3 29 15 3 26 13 3
26 13 3 26 13 3 26 13 3 26 13 3 26 13 3 26 13
3 26 13 0 3 3 0 3 3 0 3 3 0 3 3 0 3
3 0 3 3 0 3 3 0 3 3 0 3 3 0 3 3 0
3 3 26 23 23 26 23 23 26 23 23 26 23 23 26 23 23
26 23 23 75 145 18 83 152 28 87 147 39 89 137 50 89 124
61 89 110 72 87 94 82 85 78 91 83 62 99 79 46 106 75
31 111 71 16 114 65 3 115 60 110 20 53 87 26 45 65 30
36 44 30 25 25 26 13 9 16 13 4 21 0 15 15 141 127
127 141 127 127 140 126 126 140 126 126 140 126 126 140 126 126 139
125 125 139 125 125 139 125 125 138 125 125
0 17 17 0 17 17 0 17 17 0 17 17 0 17 17 0 17
17 0 17 17 0 17 17 165 149 149 165 149 149 165 148 148 165
148 148 164 148 148 164 148 148 1 41 183 1 40 180 1 39 172
14 50 176 166 133 17 150 120 15 133 106 14 113 91 12 91 73
10 67 54 7 40 32 4 26 21 3 26 21 3 0 16 16 0
16 16 0 16 16 0 16 16 0 16 16 0 16 16 4 39 20
5 48 24 5 49 25 5 49 25 5 47 24 5 43 22 4 39
20 4 34 17 3 29 15 3 26 13 3 26 13 3 26 13 3
26 13 3 26 13 3 26 13 3 26 13 3 26 13 3 26 13
0 3 3 0 3 3 0 3 3 0 3 3 0 3 3 0 3
3 0 3 3 0 3 3 0 3 3 0 3 3 0 3 3 0
3 3 0 3 3 26 23 23 26 23 23 26 23 23 26 23 23
26 23 23 67 129 18 77 139 27 81 137 37 83 128 47 84 117
58 84 103 68 83 89 77 81 74 86 78 58 94 75 43 100 71
29 104 66 15 107 61 3 108 55 101 18 48 79 24 41 58 27
31 38 26 20 20 21 13 9 17 0 15 15 0 15 15 0 15
15 0 15 15 142 128 128 142 128 128 141 127 127 141 127 127 141
127 127 141 127 127 140 126 126 140 126 126
168 152 152 168 151 151 168 151 151 168 151 151 167 151 151 167 151
151 0 17 17 0 17 17 0 17 17 0 17 17 0 17 17 0
17 17 0 17 17 0 38 170 1 40 178 1 39 173 1 37 165
3 37 157 157 126 16 141 113 15 124 99 13 104 83 11 83 66
9 59 47 6 32 26 4 26 21 3 26 21 3 161 145 145 161
145 145 161 145 145 161 145 145 160 144 144 160 144 144 160 144 144
159 144 144 3 26 13 3 28 14 3 28 14 3 26 13 3 26
13 3 26 13 3 26 13 3 26 13 3 26 13 3 26 13 3
26 13 3 26 13 3 26 13 3 26 13 0 3 3 26 23 23
26 23 23 26 23 23 26 23 23 26 23 23 26 23 23 26 23
23 26 23 23 26 23 23 26 23 23 26 23 23 26 23 23 26
23 23 26 23 23 26 23 23 0 3 3 0 3 3 0 3 3
0 15 15 55 103 16 69 123 25 74 124 35 77 118 45 78 108
54 78 95 64 77 82 73 75 68 81 72 54 88 69 39 93 65
26 97 61 13 99 56 2 99 50 91 17 43 70 21 35 50 23
26 31 22 14 13 15 13 9 17 26 23 23 26 23 23 144 130
130 144 129 129 143 129 129 143 129 129 0 15 15 0 15 15 0
15 15 0 15 15 0 15 15 0 15 15
169 153 153 169 152 152 169 152 152 169 152 152 0 17 17 0 17
17 0 17 17 0 17 17 0 17 17 0 17 17 0 17 17 0
17 17 0 17 17 1 37 165 1 38 169 1 37 164 1 35 156
1 33 145 146 117 15 130 104 13 113 90 12 93 75 10 72 57
8 48 38 5 26 21 3 26 21 3 26 21 3 162 146 146 162
146 146 162 146 146 162 146 146 161 145 145 161 145 145 161 145 145
161 145 145 0 16 16 0 16 16 0 3 3 3 26 13 3 26
13 3 26 13 3 26 13 3 26 13 3 26 13 3 26 13 3
26 13 0 3 3 0 3 3 0 3 3 0 3 3 26 23 23
26 23 23 26 23 23 26 23 23 26 23 23 26 23 23 26 23
23 26 23 23 26 23 23 26 23 23 26 23 23 26 23 23 26
23 23 153 137 137 152 137 137 0 16 16 0 16 16 0 16 16
0 16 16 0 16 16 58 102 23 66 108 32 69 105 41 71 97
51 71 86 59 70 74 68 69 61 75 66 48 81 63 35 86 59
23 89 55 11 90 49 1 88 43 78 15 36 58 19 28 39 19
18 21 16 13 12 14 13 8 18 26 23 23 26 23 23 26 23
23 26 23 23 26 23 23 26 23 23 26 23 23 144 130 130 0
15 15 0 15 15 0 15 15 0 15 15
170 153 153 170 153 153 0 17 17 0 17 17 0 17 17 0 17
17 0 17 17 0 17 17 0 17 17 0 17 17 0 17 17 0
17 17 0 17 17 1 35 155 1 36 158 1 34 153 1 32 144
1 30 133 134 107 14 118 94 12 100 80 10 80 64 8 59 47
6 35 28 4 26 21 3 26 21 3 26 21 3 163 147 147 163
147 147 163 147 147 163 146 146 162 146 146 162 146 146 162 146 146
0 17 17 0 17 17 0 17 17 0 17 17 0 3 3 0 3
3 0 3 3 0 3 3 0 3 3 0 3 3 0 3 3 0
3 3 0 3 3 0 3 3 0 3 3 0 3 3 26 23 23
26 23 23 26 23 23 26 23 23 26 23 23 26 23 23 26 23
23 26 23 23 155 140 140 155 139 139 155 139 139 154 139 139 154
139 139 154 138 138 153 138 138 153 138 138 0 16 16 0 16 16
0 16 16 0 16 16 40 67 19 55 87 29 60 88 37 63 83
46 63 75 54 63 64 61 61 53 68 59 41 73 56 30 77 52
19 79 48 8 79 42 83 9 36 64 14 29 45 16 20 27 15
13 15 12 13 11 15 26 23 23 26 23 23 26 23 23 26 23
23 26 23 23 26 23 23 26 23 23 26 23 23 26 23 23 26
23 23 145 130 130 0 15 15 0 15 15
0 18 18 0 18 18 0 18 18 0 17 17 0 17 17 0 17
17 0 17 17 0 17 17 0 17 17 169 152 152 0 17 17 0
17 17 0 17 17 0 31 138 1 32 144 1 31 140 1 30 131
1 27 120 119 96 12 103 83 11 86 69 9 66 53 7 44 35
5 26 21 3 26 21 3 26 21 3 26 21 3 164 148 148 164
148 148 164 147 147 163 147 147 163 147 147 163 147 147 0 3 3
0 17 17 0 17 17 0 17 17 0 17 17 0 17 17 0 17
17 0 17 17 0 17 17 0 16 16 0 16 16 0 16 16 0
16 16 0 16 16 0 16 16 0 16 16 0 16 16 158 142 142
158 142 142 158 142 142 157 142 142 157 141 141 157 141 141 157 141
141 156 141 141 156 140 140 156 140 140 156 140 140 155 140 140 155
140 140 155 139 139 154 139 139 154 139 139 154 139 139 0 16 16
0 16 16 0 16 16 0 16 16 38 57 22 48 68 32 52 67
40 54 61 47 54 53 54 53 44 60 51 34 64 48 24 67 44
14 68 39 6 66 34 65 9 27 47 11 20 30 11 13 17 10
13 14 13 13 8 17 26 23 23 26 23 23 26 23 23 0 3
3 26 23 23 26 23 23 26 23 23 26 23 23 26 23 23 26
23 23 146 131 131 146 131 131 145 131 131
172 155 155 171 154 154 171 154 154 171 154 154 171 154 154 171 154
154 170 153 153 170 153 153 170 153 153 170 153 153 169 152 152 169
152 152 169 152 152 169 152 152 1 29 127 1 28 124 1 26 116
1 24 105 103 83 11 87 70 9 69 55 7 49 39 5 27 21
3 26 21 3 26 21 3 26 21 3 0 3 3 0 3 3 0
3 3 0 3 3 0 3 3 0 3 3 0 3 3 26 23 23
26 23 23 26 23 23 26 23 23 162 146 146 162 146 146 162 146
146 162 146 146 161 145 145 161 145 145 161 145 145 161 145 145 160
144 144 160 144 144 160 144 144 0 16 16 159 143 143 0 16 16
159 143 143 0 16 16 0 16 16 0 16 16 0 16 16 0 16
16 0 16 16 0 16 16 0 16 16 0 16 16 0 16 16 0
16 16 0 16 16 0 16 16 0 16 16 0 16 16 155 139 139
154 139 139 154 139 139 154 139 139 154 138 138 28 37 21 38 46
31 41 45 39 43 40 45 42 33 49 40 25 52 38 17 54 34
9 53 29 3 50 23 44 7 16 27 8 13 19 9 13 16 11
13 11 15 0 3 3 0 3 3 0 3 3 0 3 3 0 3
3 0 3 3 0 3 3 0 3 3 0 3 3 0 3 3 0
3 3 0 15 15 0 15 15 0 15 15
172 155 155 172 155 155 172 155 155 172 155 155 171 154 154 171 154
154 171 154 154 171 154 154 170 153 153 170 153 153 170 153 153 170
153 153 169 153 153 169 152 152 0 23 103 1 24 104 1 22 98
1 20 88 84 67 9 68 55 7 50 40 5 29 24 3 26 21
3 26 21 3 26 21 3 26 21 3 0 3 3 0 3 3 0
3 3 26 23 23 0 3 3 0 3 3 26 23 23 26 23 23
26 23 23 26 23 23 163 147 147 163 147 147 163 147 147 163 146
146 162 146 146 162 146 146 162 146 146 162 146 146 161 145 145 0
17 17 161 145 145 161 145 145 160 144 144 0 16 16 160 144 144
0 16 16 0 16 16 0 16 16 159 143 143 0 16 16 0 16
16 0 16 16 0 16 16 0 16 16 0 16 16 0 16 16 0
16 16 0 16 16 0 16 16 0 16 16 0 16 16 0 16 16
155 140 140 155 140 140 0 16 16 155 139 139 154 139 139 154 139
139 24 23 24 27 24 30 28 20 35 27 15 37 25 10 37 21
5 35 16 1 29 13 24 5 13 21 7 13 17 10 26 23 23
26 23 23 0 3 3 0 3 3 0 3 3 0 3 3 0 3
3 0 3 3 0 3 3 0 3 3 0 3 3 0 15 15 0
15 15 0 15 15 0 15 15 0 15 15
173 156 156 173 155 155 172 155 155 172 155 155 172 155 155 172 155
155 171 154 154 171 154 154 171 154 154 171 154 154 171 154 154 170
153 153 170 153 153 0 17 17 0 17 17 0 18 78 0 17 76
0 15 67 61 49 7 46 37 5 27 22 3 26 21 3 26 21
3 26 21 3 26 21 3 0 3 3 0 3 3 0 3 3 26
23 23 26 23 23 0 3 3 26 23 23 26 23 23 26 23 23
165 148 148 164 148 148 164 148 148 164 148 148 164 147 147 163 147
147 163 147 147 163 147 147 163 146 146 162 146 146 162 146 146 162
146 146 162 145 145 161 145 145 161 145 145 161 145 145 0 17 17
0 16 16 0 16 16 0 16 16 0 16 16 0 16 16 0 16
16 0 16 16 0 16 16 0 16 16 0 16 16 0 16 16 0
16 16 0 16 16 0 16 16 0 16 16 0 16 16 0 16 16
0 16 16 156 140 140 0 16 16 0 16 16 155 140 140 155 139
139 155 139 139 26 23 23 13 8 18 13 6 19 13 4 21 13
1 23 13 24 4 13 21 7 26 23 23 26 23 23 0 3 3
26 23 23 26 23 23 0 3 3 0 3 3 0 3 3 0 3
3 0 3 3 0 3 3 0 15 15 0 15 15 0 15 15 0
15 15 0 15 15 0 15 15 0 15 15
173 156 156 173 156 156 173 156 156 173 155 155 172 155 155 172 155
155 172 155 155 172 155 155 172 154 154 171 154 154 171 154 154 0
18 18 0 18 18 0 17 17 0 17 17 0 17 17 0 9 41
0 9 39 0 7 29 26 21 3 26 21 3 26 21 3 26 21
3 0 3 3 26 23 23 0 3 3 0 3 3 0 3 3 26
23 23 0 3 3 0 3 3 166 149 149 166 149 149 165 149 149
165 149 149 165 149 149 165 148 148 164 148 148 164 148 148 164 148
148 0 17 17 164 147 147 163 147 147 163 147 147 163 147 147 0
17 17 0 17 17 162 146 146 162 146 146 162 145 145 0 17 17
0 17 17 0 17 17 161 145 145 160 144 144 0 16 16 0 16
16 0 16 16 0 16 16 159 143 143 0 16 16 0 16 16 0
16 16 0 16 16 0 16 16 0 16 16 0 16 16 0 16 16
0 16 16 157 141 141 156 141 141 0 16 16 156 140 140 156 140
140 155 140 140 0 16 16 155 140 140 155 139 139 26 23 23 26
23 23 0 3 3 26 23 23 26 23 23 26 23 23 26 23 23
26 23 23 26 23 23 26 23 23 152 137 137 0 16 16 0 16
16 0 16 16 0 16 16 0 16 16 0 16 16 0 16 16 0
15 15 0 15 15 0 15 15 0 15 15
174 157 157 0 18 18 173 156 156 173 156 156 173 156 156 0 18
18 172 155 155 172 155 155 172 155 155 172 155 155 0 18 18 0
18 18 0 18 18 0 18 18 0 18 18 0 17 17 0 17 17
0 17 17 0 3 3 0 3 3 0 3 3 0 3 3 26 23
23 0 3 3 26 23 23 0 3 3 0 3 3 0 17 17 0
17 17 0 17 17 167 150 150 167 150 150 166 150 150 166 149 149
166 149 149 166 149 149 165 149 149 165 149 149 165 148 148 165 148
148 164 148 148 164 148 148 164 148 148 164 147 147 0 17 17 163
147 147 163 147 147 163 146 146 162 146 146 162 146 146 0 17 17
0 17 17 0 17 17 0 17 17 0 17 17 161 145 145 0 17
17 0 16 16 0 16 16 0 16 16 0 16 16 0 16 16 0
16 16 0 16 16 0 16 16 0 16 16 0 16 16 0 16 16
0 16 16 0 16 16 157 142 142 157 141 141 157 141 141 157 141
141 156 141 141 0 16 16 156 140 140 0 16 16 155 140 140 155
140 140 155 139 139 155 139 139 154 139 139 154 139 139 154 139 139
154 138 138 153 138 138 153 138 138 153 138 138 153 138 138 0 16
16 0 16 16 0 16 16 0 16 16 152 136 136 0 16 16 0
16 16 0 16 16 151 136 136 0 15 15
174 157 157 174 157 157 174 156 156 174 156 156 173 156 156 173 156
156 173 156 156 173 155 155 172 155 155 172 155 155 0 18 18 0
18 18 0 18 18 0 18 18 0 18 18 0 18 18 0 18 18
0 17 17 0 17 17 170 153 153 0 17 17 0 17 17 0 17
17 0 17 17 0 17 17 0 17 17 0 17 17 0 17 17 0
17 17 168 151 151 167 151 151 167 150 150 167 150 150 167 150 150
166 150 150 166 150 150 166 149 149 166 149 149 165 149 149 165 149
149 165 148 148 165 148 148 164 148 148 164 148 148 164 148 148 164
147 147 164 147 147 0 17 17 163 147 147 0 17 17 163 146 146
0 17 17 162 146 146 0 17 17 0 17 17 0 17 17 0 17
17 0 17 17 0 17 17 0 16 16 0 16 16 0 16 16 0
16 16 0 16 16 0 16 16 0 16 16 0 16 16 0 16 16
0 16 16 0 16 16 0 16 16 158 142 142 157 142 142 157 142
142 157 141 141 157 141 141 157 141 141 156 141 141 156 141 141 156
140 140 0 16 16 155 140 140 155 140 140 155 139 139 155 139 139
154 139 139 154 139 139 154 139 139 154 138 138 154 138 138 0 16
16 0 16 16 0 16 16 0 16 16 0 16 16 0 16 16 0
16 16 0 16 16 0 16 16 0 16 16
0 18 18 0 18 18 0 18 18 0 18 18 0 18 18 0 18
18 0 18 18 173 156 156 0 18 18 173 155 155 172 155 155 172
155 155 172 155 155 172 155 155 171 154 154 171 154 154 171 154 154
171 154 154 171 154 154 170 153 153 170 153 153 170 153 153 170 153
153 169 153 153 169 152 152 169 152 152 169 152 152 168 152 152 0
17 17 168 151 151 0 17 17 0 17 17 0 17 17 0 17 17
167 150 150 0 17 17 166 150 150 0 17 17 0 17 17 0 17
17 0 17 17 0 17 17 0 17 17 0 17 17 0 17 17 0
17 17 0 17 17 164 148 148 0 17 17 0 17 17 163 147 147
163 147 147 0 17 17 162 146 146 162 146 146 162 146 146 162 146
146 162 145 145 161 145 145 161 145 145 161 145 145 161 145 145 160
144 144 0 16 16 160 144 144 0 16 16 159 144 144 159 143 143
159 143 143 159 143 143 0 16 16 158 143 143 0 16 16 0 16
16 0 16 16 0 16 16 0 16 16 0 16 16 0 16 16 0
16 16 0 16 16 0 16 16 0 16 16 0 16 16 0 16 16
0 16 16 0 16 16 0 16 16 0 16 16 0 16 16 0 16
16 154 139 139 0 16 16 153 138 138 153 138 138 153 138 138 153
138 138 153 137 137 152 137 137 152 137 137
0 18 18 0 18 18 175 157 157 0 18 18 0 18 18 0 18
18 174 156 156 173 156 156 173 156 156 173 156 156 173 156 156 173
155 155 172 155 155 0 18 18 0 18 18 172 155 155 171 154 154
171 154 154 171 154 154 171 154 154 0 18 18 170 153 153 0 17
17 170 153 153 170 153 153 169 152 152 169 152 152 169 152 152 0
17 17 168 152 152 0 17 17 0 17 17 0 17 17 0 17 17
0 17 17 0 17 17 0 17 17 167 150 150 0 17 17 0 17
17 0 17 17 166 149 149 0 17 17 0 17 17 165 149 149 0
17 17 0 17 17 164 148 148 0 17 17 0 17 17 164 147 147
163 147 147 0 17 17 163 147 147 163 147 147 0 17 17 162 146
146 162 146 146 0 17 17 162 146 146 161 145 145 161 145 145 0
17 17 161 145 145 161 145 145 160 144 144 160 144 144 160 144 144
160 144 144 159 144 144 0 16 16 159 143 143 0 16 16 0 16
16 0 16 16 0 16 16 0 16 16 158 142 142 0 16 16 157
142 142 0 16 16 0 16 16 0 16 16 0 16 16 0 16 16
156 140 140 156 140 140 0 16 16 0 16 16 0 16 16 0 16
16 0 16 16 0 16 16 0 16 16 154 139 139 154 138 138 153
138 138 0 16 16 153 138 138 153 138 138
